<svg width="427" height="171" viewBox="0 0 427 171" fill="none" xmlns="http://www.w3.org/2000/svg">
<path fill-rule="evenodd" clip-rule="evenodd" d="M10 0C4.47715 0 0 4.47716 0 10V161C0 166.523 4.47715 171 10 171H417C422.523 171 427 166.523 427 161V10C427 4.47715 422.523 0 417 0H10ZM87.6 94.44L102.8 106.6V76.2L87.6 88.36V76.2H57.2V106.6H87.6V94.44ZM49.6 61H110.4C114.58 61 118 64.382 118 68.6V114.2C118 116.216 117.199 118.149 115.774 119.574C114.349 120.999 112.416 121.8 110.4 121.8H57.2L42 137V68.6C42 66.5844 42.8007 64.6513 44.226 63.226C45.6513 61.8007 47.5844 61 49.6 61Z" fill="#3FA34D"/>
</svg>
