<svg width="95" height="58" viewBox="0 0 95 58" fill="none" xmlns="http://www.w3.org/2000/svg">
<path d="M47.5 0C51.1744 0 54.6982 1.475 57.2964 4.10051C59.8945 6.72602 61.3542 10.287 61.3542 14C61.3542 17.713 59.8945 21.274 57.2964 23.8995C54.6982 26.525 51.1744 28 47.5 28C43.8256 28 40.3018 26.525 37.7036 23.8995C35.1055 21.274 33.6458 17.713 33.6458 14C33.6458 10.287 35.1055 6.72602 37.7036 4.10051C40.3018 1.475 43.8256 0 47.5 0ZM19.7917 10C22.0083 10 24.0667 10.6 25.8479 11.68C25.2542 17.4 26.9167 23.08 30.3208 27.52C28.3417 31.36 24.3833 34 19.7917 34C16.6422 34 13.6218 32.7357 11.3948 30.4853C9.16778 28.2348 7.91667 25.1826 7.91667 22C7.91667 18.8174 9.16778 15.7652 11.3948 13.5147C13.6218 11.2643 16.6422 10 19.7917 10ZM75.2083 10C78.3578 10 81.3782 11.2643 83.6052 13.5147C85.8322 15.7652 87.0833 18.8174 87.0833 22C87.0833 25.1826 85.8322 28.2348 83.6052 30.4853C81.3782 32.7357 78.3578 34 75.2083 34C70.6167 34 66.6583 31.36 64.6792 27.52C68.0833 23.08 69.7458 17.4 69.1521 11.68C70.9333 10.6 72.9917 10 75.2083 10ZM21.7708 51C21.7708 42.72 33.2896 36 47.5 36C61.7104 36 73.2292 42.72 73.2292 51V58H21.7708V51ZM0 58V52C0 46.44 7.48125 41.76 17.6146 40.4C15.2792 43.12 13.8542 46.88 13.8542 51V58H0ZM95 58H81.1458V51C81.1458 46.88 79.7208 43.12 77.3854 40.4C87.5187 41.76 95 46.44 95 52V58Z" fill="#1F86FF"/>
</svg>
